# xmcd
#
# Track frame offsets:
#	150
#	18770
#	35740
#	54677
#	73682
#	102385
#	112777
#	127775
#	146900
#	163370
#	181870
#	203860
#	223495
#	242745
#
# Disc length: 3527 seconds
#
# Revision: 0
# Processed by: cddbd v1.5.1PL2 Copyright (c) Steve Scherf et al.
# Submitted via: dBpowerAMP V4.0
#
DISCID=d20dc50e
DTITLE=Various Artist - The Best of Alligator - Great Vocalists
DYEAR=1999
DGENRE=Blues
TTITLE0=Lonnie Brooks - Stake my claim
TTITLE1=The Mellow Fellows featuring Martin Allbritton - Last night
TTITLE2=Nappy Brown with The Heartfixers - Hard luck blues
TTITLE3=Katie Webster - Stood up again
TTITLE4=C.J. Chenier - I have the right
TTITLE5=Floyd Dixon - 450 pound woman
TTITLE6=Saffire - The Uppity Blues Women - Silent thunder in my heart
TTITLE7=Fenton Robinson - I hear some blues downstairs
TTITLE8=Corey Harris - Bound to miss me
TTITLE9=Delbert McClinton - Standing on shaky ground
TTITLE10=The Jhonny Otis Show featuring Charles Williams - Every beat of my heart
TTITLE11=Shemekia Copeland - Your mama´s talkin
TTITLE12=Rufus Thomas - Blues in the basement
TTITLE13=Koko Taylor - Only time will tell
EXTD=
EXTT0=
EXTT1=
EXTT2=
EXTT3=
EXTT4=
EXTT5=
EXTT6=
EXTT7=
EXTT8=
EXTT9=
EXTT10=
EXTT11=
EXTT12=
EXTT13=
PLAYORDER=
